<svg width="12" height="23" viewBox="0 0 12 23" fill="none" xmlns="http://www.w3.org/2000/svg">
<path d="M2.5927 4.6208C2.5927 5.22175 2.5927 7.90165 2.5927 7.90165H0V11.9134H2.5927V22.9091H7.91825V11.9053H11.492C11.492 11.9053 11.8248 9.9806 11.9912 7.87728C11.527 7.87728 7.94453 7.87728 7.94453 7.87728C7.94453 7.87728 7.94453 5.54658 7.94453 5.13242C7.94453 4.72637 8.52263 4.17415 9.10073 4.17415C9.67007 4.17415 10.8788 4.17415 12 4.17415C12 3.63005 12 1.73787 12 0C10.5022 0 8.80292 0 8.05839 0C2.46131 0.00812091 2.5927 4.01985 2.5927 4.6208Z" fill="white"/>
</svg>
