<svg width="25" height="24" viewBox="0 0 25 24" fill="none" xmlns="http://www.w3.org/2000/svg">
<path d="M24.6582 12.0469C24.6582 13.6781 24.624 15.3141 24.668 16.9453C24.7412 19.8328 22.8516 22.0641 20.4443 23.0578C19.4775 23.4563 18.4619 23.6672 17.4121 23.6672C14.126 23.6719 10.835 23.7141 7.54883 23.6531C5.07324 23.6063 3.03711 22.6125 1.57715 20.6531C0.810547 19.6219 0.444336 18.45 0.444336 17.1797C0.444336 13.8188 0.444336 10.4625 0.444336 7.10158C0.444336 4.35939 1.83594 2.44221 4.30664 1.19533C5.38086 0.656269 6.54785 0.426581 7.76367 0.421894C10.9522 0.421894 14.1455 0.403144 17.334 0.431269C19.8096 0.450019 21.875 1.35939 23.3984 3.27189C24.2481 4.34064 24.6582 5.56877 24.6582 6.91877C24.6582 8.62502 24.6582 10.336 24.6582 12.0469ZM2.24609 12.0469C2.24609 13.7672 2.24609 15.4828 2.24609 17.2031C2.24609 17.9719 2.43164 18.6938 2.84668 19.3453C3.93555 21.0563 5.58106 21.8906 7.62207 21.9235C10.8984 21.9703 14.1797 21.9422 17.4609 21.9328C18.2666 21.9328 19.0479 21.7735 19.7754 21.4406C21.7578 20.5313 22.8662 19.0828 22.8564 16.9078C22.8369 13.5797 22.8516 10.2516 22.8516 6.92346C22.8516 5.98127 22.5732 5.11877 21.9922 4.35939C20.8691 2.90158 19.3164 2.18439 17.4609 2.16564C14.1895 2.12814 10.918 2.15158 7.64649 2.15627C6.94824 2.15627 6.27442 2.29221 5.62012 2.52658C3.82324 3.16877 2.15332 4.79533 2.23145 7.19064C2.29004 8.81252 2.24609 10.4297 2.24609 12.0469Z" fill="white"/>
<path d="M12.5781 17.0156C9.42872 17.0156 6.88966 14.6063 6.88477 11.6063C6.87989 8.65313 9.43848 6.23438 12.5684 6.23438C15.708 6.22969 18.2568 8.64376 18.2617 11.6203C18.2617 14.5922 15.7178 17.0109 12.5781 17.0156ZM12.5781 15.2813C14.7217 15.2813 16.46 13.6359 16.4551 11.6109C16.4502 9.60469 14.7119 7.96407 12.5781 7.96407C10.4346 7.96407 8.68653 9.60001 8.68653 11.6203C8.69141 13.6453 10.4346 15.2859 12.5781 15.2813Z" fill="white"/>
<path d="M18.9209 4.59375C19.5801 4.59375 20.1172 5.13281 20.1172 5.79375C20.1123 6.45469 19.5703 6.98906 18.9112 6.98438C18.2617 6.97969 17.7295 6.44531 17.7295 5.79844C17.7246 5.1375 18.2618 4.59375 18.9209 4.59375Z" fill="white"/>
</svg>
