<svg width="24" height="21" viewBox="0 0 24 21" fill="none" xmlns="http://www.w3.org/2000/svg">
<path fill-rule="evenodd" clip-rule="evenodd" d="M23.9994 2.54959C23.1176 2.96795 22.1681 3.25076 21.1721 3.37712C22.1891 2.72712 22.9696 1.69626 23.3373 0.46853C22.385 1.07048 21.3328 1.50837 20.2085 1.74314C19.3126 0.72146 18.032 0.083374 16.6149 0.083374C13.8975 0.083374 11.6928 2.43826 11.6928 5.34256C11.6928 5.75486 11.735 6.15506 11.8196 6.54041C7.72759 6.32049 4.10021 4.22888 1.67002 1.04334C1.24609 1.82283 1.00365 2.72712 1.00365 3.69021C1.00365 5.51404 1.8729 7.124 3.19421 8.06756C2.38852 8.04197 1.62765 7.80271 0.962773 7.4115V7.47615C0.962773 10.0252 2.66021 12.1513 4.91415 12.633C4.50146 12.7564 4.06609 12.8181 3.61665 12.8181C3.29977 12.8181 2.98984 12.7865 2.68965 12.7248C3.31646 14.8135 5.13371 16.3347 7.28902 16.3754C5.60415 17.7869 3.47996 18.6279 1.1739 18.6279C0.776586 18.6279 0.383586 18.6039 -0.000976562 18.5556C2.17834 20.0453 4.76752 20.9166 7.54684 20.9166C16.6048 20.9166 21.5563 12.9037 21.5563 5.9533C21.5563 5.72459 21.552 5.49587 21.5435 5.27166C22.5061 4.52986 23.3415 3.60447 23.9994 2.54959Z" fill="white"/>
</svg>
